<svg width="29" height="29" viewBox="0 0 29 29" fill="none" xmlns="http://www.w3.org/2000/svg">
<path d="M16.1004 0.666992C18.6213 0.666992 19.1539 0.695356 20.4416 0.751032C21.9258 0.821415 22.9489 1.05883 23.8312 1.40969C24.7555 1.75951 25.5402 2.25009 26.3101 3.02011C27.0947 3.79013 27.5706 4.57485 27.9351 5.49929C28.2848 6.38171 28.5096 7.40384 28.5789 8.9029C28.6493 10.2339 28.663 10.7518 28.663 13.5535V15.7942C28.663 18.5959 28.6493 19.1138 28.5789 20.4447C28.5548 21.6686 28.3205 22.8294 27.9109 23.9051L27.934 23.8347C27.5695 24.7591 27.0937 25.5439 26.3238 26.3139C25.5391 27.0986 24.7555 27.5745 23.8312 27.939C22.9489 28.2888 21.9269 28.5136 20.4416 28.583C19.1108 28.6533 18.5793 28.667 15.7779 28.667H13.5511C10.7498 28.667 10.2319 28.6533 8.88745 28.583C7.66375 28.5588 6.50308 28.3245 5.42749 27.9148L5.49787 27.9379C4.52837 27.5671 3.70172 27.0198 3.02002 26.3275L3.01897 26.3265C2.31941 25.6416 1.76691 24.8096 1.40978 23.8799L1.39403 23.8326C1.00854 22.8283 0.774304 21.6665 0.750145 20.4531V20.4426C0.694475 19.348 0.662964 18.0654 0.662964 16.7764C0.662964 16.539 0.664014 16.3016 0.666115 16.0652V16.1009V13.2299C0.666115 10.7087 0.694475 10.1761 0.750145 8.8882C0.820521 7.40384 1.05791 6.38066 1.39403 5.49824C1.75851 4.5738 2.23433 3.78908 3.01897 3.01906C3.69646 2.31838 4.52521 1.76897 5.4527 1.42335L5.49787 1.40864C6.50098 1.01891 7.66165 0.779395 8.87484 0.751032H8.88745C10.1763 0.695356 10.7078 0.666992 13.2287 0.666992H16.1004ZM16.1288 3.18819H13.2014C10.7781 3.18819 10.2603 3.21655 8.99984 3.27223C7.64169 3.32791 6.89908 3.55271 6.40855 3.74811C5.74996 4.00023 5.28779 4.30802 4.79831 4.7986C4.30884 5.28919 4.00002 5.75141 3.74793 6.40902C3.56622 6.8996 3.32778 7.64125 3.27211 9.01426C3.21644 10.2749 3.18808 10.7791 3.18808 13.2163V16.1293C3.18808 18.5664 3.21644 19.0707 3.27211 20.3313C3.32778 21.6896 3.55256 22.4323 3.74793 22.9229C4.00002 23.5815 4.30779 24.0437 4.79831 24.5333C5.28884 25.0228 5.75101 25.3317 6.40855 25.5838C6.89908 25.7802 7.64064 26.004 9.01349 26.0597C10.3716 26.13 10.8622 26.1437 13.8873 26.1437H15.4418C18.4806 26.1437 18.9574 26.13 20.3292 26.0597C21.6874 26.004 22.43 25.7792 22.9205 25.5838C23.5791 25.3317 24.0413 25.0239 24.5308 24.5333C25.0202 24.0427 25.3291 23.5805 25.5811 22.9229C25.7776 22.4323 26.0013 21.6906 26.057 20.3313C26.1273 18.9583 26.141 18.4824 26.141 15.4433V13.9022C26.141 10.8631 26.1273 10.3726 26.057 8.99955C26.0013 7.64125 25.7765 6.89855 25.5811 6.40797C25.3438 5.77662 24.9856 5.23771 24.5318 4.7986L24.5308 4.79755C24.0896 4.34269 23.5518 3.98447 22.9499 3.75651L22.9205 3.74706C22.1517 3.45712 21.263 3.28378 20.3345 3.27118H20.3292C19.2495 3.21655 17.9858 3.18504 16.7138 3.18504C16.508 3.18504 16.3021 3.18609 16.0962 3.18714H16.1277L16.1288 3.18819ZM14.6719 7.47423C18.6434 7.47423 21.8639 10.694 21.8639 14.667C21.8639 18.64 18.6444 21.8598 14.6719 21.8598C10.7004 21.8598 7.47994 18.64 7.47994 14.667C7.47994 10.694 10.6994 7.47423 14.6719 7.47423V7.47423ZM14.6719 9.99542C12.0922 9.99542 10.0008 12.087 10.0008 14.667C10.0008 17.247 12.0922 19.3386 14.6719 19.3386C17.2516 19.3386 19.3429 17.247 19.3429 14.667C19.3429 12.087 17.2516 9.99542 14.6719 9.99542ZM22.1369 5.51294C23.0655 5.51294 23.8176 6.2651 23.8176 7.19374C23.8176 8.12238 23.0655 8.87454 22.1369 8.87454C21.2084 8.87454 20.4563 8.12238 20.4563 7.19374C20.4563 6.2651 21.2084 5.51294 22.1369 5.51294V5.51294Z" fill="#CCBA8D"/>
</svg>
