<svg width="27" height="27" viewBox="0 0 27 27" fill="none" xmlns="http://www.w3.org/2000/svg">
<path d="M13.714 0.666992C6.52906 0.693316 0.713989 6.50305 0.713989 13.666C0.713989 19.1248 4.09168 23.7987 8.87739 25.7242L8.96448 25.7554C8.83434 24.7288 8.74237 23.1552 9.00362 22.0243L10.53 15.5633C10.53 15.5633 10.1386 14.7833 10.1386 13.6397C10.1386 11.8331 11.1954 10.4935 12.5134 10.4935C13.622 10.4935 14.17 11.3252 14.17 12.3138C14.17 13.432 13.4527 15.0953 13.0741 16.6425C12.761 17.9422 13.7267 18.9951 15.0183 18.9951C17.3402 18.9951 19.1152 16.5645 19.1152 13.0547C19.1152 9.93488 16.8715 7.77731 13.6621 7.77731C13.5878 7.77341 13.5017 7.77146 13.4146 7.77146C10.2942 7.77146 7.76585 10.2917 7.76585 13.3999C7.76585 13.4018 7.76585 13.4038 7.76585 13.4057C7.76585 14.524 8.19638 15.7193 8.7316 16.3696C8.8363 16.4992 8.84902 16.6162 8.80988 16.7469L8.44491 18.2161C8.39305 18.4501 8.24921 18.5154 8.01438 18.3984C6.37055 17.6311 5.35293 15.2786 5.35293 13.355C5.35293 9.26021 8.35391 5.50372 13.9899 5.50372C18.5036 5.50372 22.0398 8.70157 22.0398 13.004C22.0398 17.4888 19.1954 21.0893 15.2561 21.0893C13.9518 21.0893 12.6993 20.4 12.2815 19.5947L11.4596 22.6755C11.0379 23.9791 10.4889 25.111 9.80792 26.1493L9.84119 26.0947C10.986 26.4574 12.303 26.667 13.668 26.667C20.8735 26.667 26.714 20.8465 26.714 13.668C26.714 6.505 20.8999 0.695266 13.7179 0.668942H13.715L13.714 0.666992Z" fill="#CCBA8D"/>
</svg>
