<svg width="27" height="23" viewBox="0 0 27 23" fill="none" xmlns="http://www.w3.org/2000/svg">
<path d="M26.666 2.87862C25.691 3.37922 24.716 3.5559 23.5724 3.71836C24.716 3.04108 25.5224 2.02567 25.847 0.672118C24.8672 1.28949 23.7255 1.75963 22.5096 2.0145L22.4414 2.02668C21.4362 0.997051 20.0624 0.355308 18.5453 0.333984H18.5414C15.7725 0.333984 13.3418 2.87963 13.3418 5.92588C13.3418 6.42648 13.3418 6.76563 13.5105 7.10376C9.04701 6.92302 5.10709 4.73073 2.48242 1.37783L2.46097 1.3494C2.0466 2.08659 1.80188 2.97203 1.80188 3.91739C1.80188 4.02807 1.8048 4.13875 1.81163 4.24841L1.81065 4.23318C1.8438 6.14013 2.79442 7.80846 4.2218 8.78326L4.24227 8.79646C3.42328 8.79646 2.61697 8.45833 1.79798 8.11918C1.79798 10.8273 3.59196 13.0338 6.0226 13.5344C5.54193 13.7101 5.04761 13.7101 4.56694 13.7101C4.24227 13.7101 3.91663 13.7101 3.59196 13.5344C4.24227 15.7409 6.19225 17.4336 8.63557 17.4336C6.88059 18.911 4.62252 19.8046 2.16458 19.8046C2.09535 19.8046 2.02613 19.8036 1.9569 19.8026H1.96763H0.667969C2.97381 21.3348 5.773 22.269 8.77597 22.334H8.79254C18.5424 22.334 23.9117 13.8725 23.9117 6.58793V5.91065C25.03 5.10847 25.9523 4.0961 26.6446 2.92126L26.668 2.87862H26.666Z" fill="white"/>
</svg>
