<svg width="26" height="22" viewBox="0 0 26 22" fill="none" xmlns="http://www.w3.org/2000/svg">
<path d="M25.9981 2.54463C25.0231 3.04523 24.0481 3.22191 22.9044 3.38438C24.0481 2.7071 24.8544 1.69168 25.1791 0.338133C24.1992 0.955506 23.0575 1.42564 21.8417 1.68051L21.7734 1.6927C20.7682 0.663066 19.3945 0.0213237 17.8774 0H17.8735C15.1045 0 12.6739 2.54565 12.6739 5.59189C12.6739 6.09249 12.6739 6.43164 12.8425 6.76978C8.37904 6.58903 4.43912 4.39675 1.81445 1.04385L1.793 1.01542C1.37863 1.75261 1.13391 2.63805 1.13391 3.5834C1.13391 3.69408 1.13684 3.80476 1.14366 3.91443L1.14269 3.8992C1.17584 5.80615 2.12645 7.47447 3.55383 8.44927L3.57431 8.46247C2.75532 8.46247 1.949 8.12434 1.13001 7.78519C1.13001 10.4933 2.92399 12.6998 5.35463 13.2004C4.87396 13.3761 4.37965 13.3761 3.89898 13.3761C3.57431 13.3761 3.24866 13.3761 2.92399 13.2004C3.57431 15.4069 5.52428 17.0996 7.9676 17.0996C6.21262 18.577 3.95455 19.4706 1.49661 19.4706C1.42738 19.4706 1.35816 19.4696 1.28893 19.4686H1.29966H0C2.30585 21.0008 5.10504 21.935 8.108 22H8.12457C17.8745 22 23.2437 13.5385 23.2437 6.25395V5.57666C24.362 4.77448 25.2844 3.76212 25.9766 2.58728L26 2.54463H25.9981Z" fill="#CCBA8D"/>
</svg>
