<svg width="50" height="50" viewBox="0 0 45 45" fill="none" xmlns="http://www.w3.org/2000/svg">
<path d="M21.0237 39.2C15.3924 39.2 10.1087 37.061 6.14556 33.1774C2.18247 29.2937 4.92373e-07 24.1153 4.92373e-07 18.5965C-0.000840163 14.7895 1.07481 11.0566 3.10756 7.81237C5.14031 4.5681 8.05064 1.93929 11.5155 0.217722C11.872 0.0396408 12.2741 -0.0316001 12.6716 0.0128924C13.0692 0.0573849 13.4445 0.21564 13.7508 0.467902C14.0571 0.720164 14.2809 1.05526 14.394 1.43135C14.5072 1.80745 14.5049 2.20789 14.3873 2.58268C13.3985 5.71238 13.3014 9.04737 14.1062 12.2273C14.9111 15.4072 16.5874 18.311 18.954 20.6251C20.6524 22.3019 22.6732 23.6318 24.8996 24.538C27.126 25.4442 29.5137 25.9086 31.9245 25.9044C33.7687 25.9058 35.6026 25.6347 37.3644 25.1003C37.7468 24.9849 38.1555 24.9826 38.5393 25.0935C38.9231 25.2044 39.2651 25.4236 39.5226 25.7239C39.78 26.0241 39.9415 26.392 39.9869 26.7816C40.0322 27.1712 39.9595 27.5653 39.7777 27.9147C38.021 31.3102 35.3385 34.1624 32.028 36.1545C28.7175 38.1466 24.9085 39.2008 21.0237 39.2V39.2ZM11.4428 3.24803C8.75593 4.8501 6.53646 7.10459 4.99903 9.79341C3.46161 12.4822 2.65827 15.5144 2.66673 18.5965C2.66673 28.5162 10.9016 36.5866 21.0237 36.5866C24.1688 36.5949 27.2629 35.8077 30.0066 34.301C32.7503 32.7943 35.0508 30.6192 36.6856 27.9861C35.1244 28.3402 33.5271 28.5187 31.9247 28.518C29.1636 28.5232 26.4288 27.9916 23.8788 26.954C21.3288 25.9164 19.014 24.3934 17.0687 22.4733C14.5414 20.0012 12.6986 16.9388 11.7143 13.5752C10.7299 10.2115 10.6365 6.65742 11.4428 3.24852V3.24803Z" fill="#1C1C1C"/>
</svg>
