<svg width="32" height="32" viewBox="0 0 32 32" fill="none" xmlns="http://www.w3.org/2000/svg">
<path d="M18.1004 2.66699C20.6213 2.66699 21.1539 2.69536 22.4416 2.75103C23.9258 2.82142 24.9489 3.05883 25.8312 3.40969C26.7555 3.75951 27.5402 4.25009 28.3101 5.02011C29.0947 5.79013 29.5706 6.57485 29.9351 7.49929C30.2848 8.38171 30.5096 9.40384 30.5789 10.9029C30.6493 12.2339 30.663 12.7518 30.663 15.5535V17.7942C30.663 20.5959 30.6493 21.1138 30.5789 22.4447C30.5548 23.6686 30.3205 24.8294 29.9109 25.9051L29.934 25.8347C29.5695 26.7591 29.0937 27.5439 28.3238 28.3139C27.5391 29.0986 26.7555 29.5745 25.8312 29.939C24.9489 30.2888 23.9269 30.5136 22.4416 30.583C21.1108 30.6533 20.5793 30.667 17.7779 30.667H15.5511C12.7498 30.667 12.2319 30.6533 10.8874 30.583C9.66375 30.5588 8.50308 30.3245 7.42749 29.9148L7.49787 29.9379C6.52836 29.5671 5.70172 29.0198 5.02002 28.3275L5.01897 28.3265C4.31941 27.6416 3.76691 26.8096 3.40978 25.8799L3.39403 25.8326C3.00854 24.8283 2.7743 23.6665 2.75015 22.4531V22.4426C2.69448 21.348 2.66296 20.0654 2.66296 18.7764C2.66296 18.539 2.66401 18.3016 2.66611 18.0652V18.1009V15.2299C2.66611 12.7087 2.69448 12.1761 2.75015 10.8882C2.82052 9.40384 3.05791 8.38066 3.39403 7.49824C3.75851 6.5738 4.23433 5.78908 5.01897 5.01906C5.69646 4.31838 6.52521 3.76897 7.4527 3.42335L7.49787 3.40864C8.50098 3.01891 9.66165 2.7794 10.8748 2.75103H10.8874C12.1763 2.69536 12.7078 2.66699 15.2287 2.66699H18.1004ZM18.1288 5.18819H15.2014C12.7781 5.18819 12.2603 5.21655 10.9998 5.27223C9.64169 5.32791 8.89908 5.55271 8.40855 5.74811C7.74996 6.00023 7.28779 6.30802 6.79831 6.7986C6.30884 7.28919 6.00002 7.75141 5.74793 8.40902C5.56622 8.8996 5.32778 9.64125 5.27211 11.0143C5.21644 12.2749 5.18808 12.7791 5.18808 15.2163V18.1293C5.18808 20.5664 5.21644 21.0707 5.27211 22.3313C5.32778 23.6896 5.55256 24.4323 5.74793 24.9229C6.00002 25.5815 6.30779 26.0437 6.79831 26.5333C7.28884 27.0228 7.75101 27.3317 8.40855 27.5838C8.89908 27.7802 9.64064 28.004 11.0135 28.0597C12.3716 28.13 12.8622 28.1437 15.8873 28.1437H17.4418C20.4806 28.1437 20.9574 28.13 22.3292 28.0597C23.6874 28.004 24.43 27.7792 24.9205 27.5838C25.5791 27.3317 26.0413 27.0239 26.5308 26.5333C27.0202 26.0427 27.3291 25.5805 27.5811 24.9229C27.7776 24.4323 28.0013 23.6906 28.057 22.3313C28.1273 20.9583 28.141 20.4824 28.141 17.4433V15.9022C28.141 12.8631 28.1273 12.3726 28.057 10.9995C28.0013 9.64125 27.7765 8.89855 27.5811 8.40797C27.3438 7.77662 26.9856 7.23771 26.5318 6.7986L26.5308 6.79755C26.0896 6.34269 25.5518 5.98447 24.9499 5.75651L24.9205 5.74706C24.1517 5.45712 23.263 5.28378 22.3345 5.27118H22.3292C21.2495 5.21655 19.9858 5.18504 18.7138 5.18504C18.508 5.18504 18.3021 5.18609 18.0962 5.18714H18.1277L18.1288 5.18819ZM16.6719 9.47423C20.6434 9.47423 23.8638 12.694 23.8638 16.667C23.8638 20.64 20.6444 23.8598 16.6719 23.8598C12.7004 23.8598 9.47994 20.64 9.47994 16.667C9.47994 12.694 12.6994 9.47423 16.6719 9.47423ZM16.6719 11.9954C14.0922 11.9954 12.0008 14.087 12.0008 16.667C12.0008 19.247 14.0922 21.3386 16.6719 21.3386C19.2516 21.3386 21.3429 19.247 21.3429 16.667C21.3429 14.087 19.2516 11.9954 16.6719 11.9954ZM24.1369 7.51294C25.0655 7.51294 25.8176 8.2651 25.8176 9.19374C25.8176 10.1224 25.0655 10.8745 24.1369 10.8745C23.2084 10.8745 22.4563 10.1224 22.4563 9.19374C22.4563 8.2651 23.2084 7.51294 24.1369 7.51294Z" fill="#CCBA8D"/>
</svg>
