<svg width="32" height="32" viewBox="0 0 32 32" fill="none" xmlns="http://www.w3.org/2000/svg">
<path d="M17.4374 2C19.9584 2 20.4909 2.02836 21.7787 2.08404C23.2629 2.15442 24.2859 2.39184 25.1682 2.7427C26.0926 3.09252 26.8772 3.5831 27.6471 4.35312C28.4318 5.12313 28.9076 5.90786 29.2721 6.8323C29.6219 7.71471 29.8466 8.73685 29.916 10.2359C29.9863 11.5669 30 12.0848 30 14.8865V17.1272C30 19.9289 29.9863 20.4468 29.916 21.7777C29.8918 23.0016 29.6576 24.1624 29.2479 25.2381L29.271 25.1677C28.9066 26.0921 28.4307 26.8769 27.6608 27.6469C26.8762 28.4316 26.0926 28.9075 25.1682 29.272C24.2859 29.6218 23.2639 29.8466 21.7787 29.916C20.4478 29.9863 19.9163 30 17.115 30H14.8882C12.0868 30 11.569 29.9863 10.2245 29.916C9.00079 29.8918 7.84012 29.6575 6.76453 29.2478L6.8349 29.271C5.8654 28.9001 5.03875 28.3528 4.35705 27.6605L4.356 27.6595C3.65645 26.9746 3.10395 26.1426 2.74682 25.2129L2.73106 25.1656C2.34558 24.1613 2.11134 22.9995 2.08718 21.7861V21.7756C2.03151 20.681 2 19.3984 2 18.1094C2 17.872 2.00105 17.6346 2.00315 17.3982V17.4339V14.5629C2.00315 12.0417 2.03151 11.5091 2.08718 10.2212C2.15756 8.73685 2.39494 7.71366 2.73106 6.83124C3.09555 5.90681 3.57137 5.12208 4.356 4.35207C5.0335 3.65138 5.86225 3.10197 6.78974 2.75636L6.8349 2.74165C7.83802 2.35192 8.99869 2.1124 10.2119 2.08404H10.2245C11.5133 2.02836 12.0448 2 14.5657 2H17.4374ZM17.4658 4.5212H14.5384C12.1152 4.5212 11.5973 4.54956 10.3369 4.60524C8.97873 4.66091 8.23611 4.88572 7.74558 5.08111C7.08699 5.33323 6.62483 5.64103 6.13535 6.13161C5.64587 6.6222 5.33706 7.08442 5.08497 7.74203C4.90325 8.23261 4.66482 8.97426 4.60915 10.3473C4.55348 11.6079 4.52512 12.1121 4.52512 14.5493V17.4623C4.52512 19.8995 4.55348 20.4037 4.60915 21.6643C4.66482 23.0226 4.8896 23.7653 5.08497 24.2559C5.33706 24.9145 5.64482 25.3768 6.13535 25.8663C6.62588 26.3558 7.08805 26.6647 7.74558 26.9168C8.23611 27.1132 8.97768 27.337 10.3505 27.3927C11.7087 27.463 12.1992 27.4767 15.2243 27.4767H16.7789C19.8176 27.4767 20.2945 27.463 21.6663 27.3927C23.0244 27.337 23.767 27.1122 24.2576 26.9168C24.9162 26.6647 25.3783 26.3569 25.8678 25.8663C26.3573 25.3757 26.6661 24.9135 26.9182 24.2559C27.1146 23.7653 27.3383 23.0236 27.394 21.6643C27.4644 20.2913 27.478 19.8154 27.478 16.7763V15.2352C27.478 12.1961 27.4644 11.7056 27.394 10.3326C27.3383 8.97426 27.1136 8.23156 26.9182 7.74098C26.6808 7.10963 26.3226 6.57072 25.8689 6.13161L25.8678 6.13056C25.4266 5.6757 24.8888 5.31748 24.287 5.08952L24.2576 5.08006C23.4887 4.79013 22.6001 4.61679 21.6715 4.60419H21.6663C20.5865 4.54956 19.3229 4.51805 18.0509 4.51805C17.845 4.51805 17.6391 4.5191 17.4332 4.52015H17.4648L17.4658 4.5212ZM16.0089 8.80723C19.9804 8.80723 23.2009 12.027 23.2009 16C23.2009 19.973 19.9815 23.1928 16.0089 23.1928C12.0374 23.1928 8.81697 19.973 8.81697 16C8.81697 12.027 12.0364 8.80723 16.0089 8.80723ZM16.0089 11.3284C13.4292 11.3284 11.3379 13.42 11.3379 16C11.3379 18.58 13.4292 20.6716 16.0089 20.6716C18.5887 20.6716 20.68 18.58 20.68 16C20.68 13.42 18.5887 11.3284 16.0089 11.3284ZM23.474 6.84595C24.4025 6.84595 25.1546 7.59811 25.1546 8.52675C25.1546 9.45539 24.4025 10.2075 23.474 10.2075C22.5454 10.2075 21.7934 9.45539 21.7934 8.52675C21.7934 7.59811 22.5454 6.84595 23.474 6.84595Z" fill="#FFFFFF"/>
</svg>
