<svg width="32" height="32" viewBox="0 0 32 32" fill="none" xmlns="http://www.w3.org/2000/svg">
<path d="M16 3C8.81507 3.02632 3 8.83606 3 15.999C3 21.4578 6.37769 26.1317 11.1634 28.0572L11.2505 28.0884C11.1204 27.0618 11.0284 25.4882 11.2896 24.3573L12.816 17.8963C12.816 17.8963 12.4247 17.1163 12.4247 15.9727C12.4247 14.1661 13.4814 12.8265 14.7994 12.8265C15.908 12.8265 16.456 13.6582 16.456 14.6468C16.456 15.765 15.7387 17.4283 15.3601 18.9756C15.047 20.2752 16.0127 21.3281 17.3043 21.3281C19.6262 21.3281 21.4012 18.8976 21.4012 15.3877C21.4012 12.2679 19.1575 10.1103 15.9481 10.1103C15.8738 10.1064 15.7877 10.1045 15.7006 10.1045C12.5802 10.1045 10.0519 12.6247 10.0519 15.7329C10.0519 15.7348 10.0519 15.7368 10.0519 15.7387C10.0519 16.857 10.4824 18.0523 11.0176 18.7026C11.1223 18.8322 11.135 18.9492 11.0959 19.0799L10.7309 20.5491C10.6791 20.7831 10.5352 20.8484 10.3004 20.7314C8.65656 19.9642 7.63894 17.6116 7.63894 15.688C7.63894 11.5932 10.6399 7.83673 16.2759 7.83673C20.7896 7.83673 24.3258 11.0346 24.3258 15.337C24.3258 19.8218 21.4814 23.4223 17.5421 23.4223C16.2378 23.4223 14.9853 22.733 14.5675 21.9277L13.7456 25.0085C13.3239 26.3121 12.775 27.444 12.0939 28.4823L12.1272 28.4277C13.272 28.7904 14.589 29 15.954 29C23.1595 29 29 23.1795 29 16.001C29 8.83801 23.1859 3.02827 16.0039 3.00195H16.001L16 3Z" fill="#CCBA8D"/>
</svg>
