<svg width="32" height="32" viewBox="0 0 32 32" fill="none" xmlns="http://www.w3.org/2000/svg">
<path d="M28.9981 7.54463C28.0231 8.04523 27.0481 8.22191 25.9044 8.38438C27.0481 7.7071 27.8544 6.69168 28.1791 5.33813C27.1992 5.95551 26.0575 6.42564 24.8417 6.68051L24.7734 6.6927C23.7682 5.66307 22.3945 5.02132 20.8774 5H20.8735C18.1045 5 15.6739 7.54565 15.6739 10.5919C15.6739 11.0925 15.6739 11.4316 15.8425 11.7698C11.379 11.589 7.43912 9.39675 4.81445 6.04385L4.793 6.01542C4.37863 6.75261 4.13391 7.63805 4.13391 8.5834C4.13391 8.69408 4.13684 8.80476 4.14366 8.91443L4.14269 8.8992C4.17584 10.8061 5.12645 12.4745 6.55383 13.4493L6.57431 13.4625C5.75532 13.4625 4.949 13.1243 4.13001 12.7852C4.13001 15.4933 5.92399 17.6998 8.35463 18.2004C7.87396 18.3761 7.37964 18.3761 6.89898 18.3761C6.57431 18.3761 6.24866 18.3761 5.92399 18.2004C6.57431 20.4069 8.52428 22.0996 10.9676 22.0996C9.21262 23.577 6.95455 24.4706 4.49661 24.4706C4.42738 24.4706 4.35816 24.4696 4.28893 24.4686H4.29966H3C5.30585 26.0008 8.10504 26.935 11.108 27H11.1246C20.8745 27 26.2437 18.5385 26.2437 11.2539V10.5767C27.362 9.77449 28.2844 8.76212 28.9766 7.58728L29 7.54463H28.9981Z" fill="#FFFFFF"/>
</svg>
